<svg width="580" height="400" xmlns="http://www.w3.org/2000/svg">
 <!-- Created with Method Draw - http://github.com/duopixel/Method-Draw/ -->
 <g>
  <title>background</title>
  <rect fill="#fff" id="canvas_background" height="402" width="582" y="-1" x="-1"/>
  <g display="none" overflow="visible" y="0" x="0" height="100%" width="100%" id="canvasGrid">
   <rect fill="url(#gridpattern)" stroke-width="0" y="0" x="0" height="100%" width="100%"/>
  </g>
 </g>
 <g>
  <title>Layer 1</title>
  <path d="m194.5,87.306816c-4,-1 -6,-1 -11,1c-5,2 -12.881516,5.190277 -16,7c-9.669983,5.61171 -15.384583,9.349442 -19,15c-3.450989,5.393578 -7.664368,13.955902 -13,20.000008c-3.309006,3.748398 -5.648865,7.19577 -8,11c-2.628654,4.25325 -5.481689,8.879974 -7,16c-1.474716,6.915573 -1.545883,23.116959 0,29c2.974648,11.320404 10.338928,25.497787 15,31c14.176102,16.734329 33.797165,27.730515 54,35c41.337143,14.874146 56.963608,11.353699 69,11c7.068024,-0.207703 12.924377,-5.066803 20,-13c9.895142,-11.094421 20.624023,-32.675415 29,-48c3.458496,-6.327621 13.476868,-19.489624 16,-38c1.755768,-12.88089 1.001282,-27.865524 -8,-39.000008c-34.577271,-42.771637 -61.934372,-38.223259 -82,-44c-28.909042,-8.322693 -44.65947,-12.912064 -57,-17c-3.91394,-1.296539 -7,-1.999996 -8,-0.999996l0,1.999996l-1,4l0,1" id="svg_1" stroke-width="1.5" stroke="#000" fill="none"/>
  <path d="m456.5,84.306816c18,2 18,3 18,4c0,3 -0.306091,11.902275 -4,24c-5.455566,17.86721 -15.469971,38.392799 -23,48.000008c-6.557556,8.366501 -13,15 -17,18c-4,3 -9.748108,7.568115 -16,10c-6.784882,2.639206 -13.957977,5.130814 -20,7c-6.954895,2.151596 -10.448059,3.577194 -13,2c-3.80423,-2.351135 -6.029114,-11.726944 -9,-25c-3.088959,-13.800659 -3.268005,-28.741928 3,-38c6.750854,-9.971252 16.004089,-18.33667 25,-24.000008c6.444977,-4.057396 9,-5 10,-5c1,0 4,-2 8,-3l7,-1" id="svg_2" stroke-width="1.5" stroke="#000" fill="none"/>
  <polyline stroke-linecap="round" id="svg_3" points="469.5000010837208,143.30681885791216 469.5000010837208,144.30681885791216 " stroke-width="1.5" stroke="#000" fill="none"/>
  <rect id="svg_4" height="115" width="96" y="113.306819" x="55.500001" stroke-width="1.5" stroke="#000" fill="#fff"/>
 </g>
</svg>