<?xml version="1.0" encoding="UTF-8"?>
<svg width="339px" height="200px" viewBox="0 0 339 200" version="1.1" xmlns="http://www.w3.org/2000/svg" xmlns:xlink="http://www.w3.org/1999/xlink">
    <!-- Generator: Sketch 50 (54983) - http://www.bohemiancoding.com/sketch -->
    <title>Combined Shape</title>
    <desc>Created with Sketch.</desc>
    <defs></defs>
    <g id="Page-1" stroke="none" stroke-width="1" fill="none" fill-rule="evenodd" opacity="0.9">
        <g id="编辑页-图文-样式-图文十" transform="translate(-789.000000, -267.000000)" fill="#2A3675">
            <g id="画布" transform="translate(771.000000, 130.000000)">
                <g id="Group-16" transform="translate(0.000000, 87.000000)">
                    <path d="M18.75,225.00766 L18.75,75 C32.5571187,75 43.75,63.8071187 43.75,50 L331.251937,50 C331.250647,50.104013 331.25,50.2081809 331.25,50.3125 C331.25,63.9470298 342.30297,75 355.9375,75 C356.041819,75 356.145987,74.999353 356.25,74.9980627 L356.25,225 C342.442881,225 331.25,236.192881 331.25,250 L44.375,250 C44.375,236.192881 33.1821187,225 19.375,225 C19.1660581,225 18.9577148,225.002563 18.75,225.00766 Z" id="Combined-Shape"></path>
                </g>
            </g>
        </g>
    </g>
</svg>